Coordinates
version=1
nRows=14
nColumns=63
inDegrees=yes

Units are S.I. units (second, meters, Newtons, ...)
If the header above contains a line with 'inDegrees', this indicates whether rotational values are in degrees (yes) or radians (no).

endheader
time	pelvis_tilt	pelvis_list	pelvis_rotation	pelvis_tx	pelvis_ty	pelvis_tz	hip_flexion_r	hip_adduction_r	hip_rotation_r	knee_angle_r	knee_angle_r_beta	ankle_angle_r	subtalar_angle_r	mtp_angle_r	hip_flexion_l	hip_adduction_l	hip_rotation_l	knee_angle_l	knee_angle_l_beta	ankle_angle_l	subtalar_angle_l	mtp_angle_l	L5_S1_Flex_Ext	L5_S1_Lat_Bending	L5_S1_axial_rotation	L4_L5_Flex_Ext	L4_L5_Lat_Bending	L4_L5_axial_rotation	L3_L4_Flex_Ext	L3_L4_Lat_Bending	L3_L4_axial_rotation	L2_L3_Flex_Ext	L2_L3_Lat_Bending	L2_L3_axial_rotation	L1_L2_Flex_Ext	L1_L2_Lat_Bending	L1_L2_axial_rotation	L1_T12_Flex_Ext	L1_T12_Lat_Bending	L1_T12_axial_rotation	Abs_r3	Abs_r2	Abs_r1	Abs_t1	Abs_t2	neck_flexion	neck_bending	neck_rotation	arm_flex_r	arm_add_r	arm_rot_r	elbow_flex_r	pro_sup_r	wrist_flex_r	wrist_dev_r	arm_flex_l	arm_add_l	arm_rot_l	elbow_flex_l	pro_sup_l	wrist_flex_l	wrist_dev_l
2.542373	0.503197	-0.897367	95.813933	0.275823	0.721632	0.826483	-6.672790	4.200931	10.808024	1.206607	0.021059	25.522487	-15.512720	0.000000	-2.354721	-1.465410	-3.953738	9.445883	0.164862	35.846562	1.752237	0.000000	-0.309810	0.002880	-0.181277	-0.575347	0.003831	-0.192606	-0.508986	0.007003	-0.192606	-0.354081	0.007003	-0.158617	-0.287689	0.005873	-0.147287	-0.177025	0.004462	-0.135958	-2.212938	0.032582	-1.008206	0.000000	0.000000	13.888700	2.532964	2.688918	17.565254	0.293230	159.390179	-1.477886	-2.935663	6.544520	-21.194683	13.238151	-14.171609	83.068889	21.962238	46.723005	-5.231981	-7.714519
2.559322	0.575466	-1.082956	96.148972	0.275682	0.721456	0.827773	-6.275205	4.283959	9.875850	1.545226	0.026969	25.823547	-14.616452	0.000000	-2.012613	-1.590900	-4.173163	9.521725	0.166185	36.114904	2.521275	0.000000	-0.298171	0.009103	-0.241307	-0.553733	0.012107	-0.256389	-0.489864	0.022133	-0.256389	-0.340779	0.022133	-0.211144	-0.276881	0.018562	-0.196062	-0.170375	0.014100	-0.180980	-2.129803	0.102973	-1.342078	0.000000	0.000000	13.528651	3.127778	3.077510	18.006690	0.739295	155.222296	-0.436928	-1.241409	6.912227	-21.019866	13.405014	-13.755156	80.269249	22.997457	50.413257	-4.552195	-6.820157
2.576271	0.727821	-1.299792	96.470554	0.275256	0.721306	0.829204	-5.795095	4.413985	8.658921	1.962679	0.034255	26.200939	-13.307225	0.000000	-1.616867	-1.766525	-4.289872	9.629696	0.168070	36.309389	3.119226	0.000000	-0.284461	0.031542	-0.278702	-0.528272	0.041951	-0.296121	-0.467341	0.076692	-0.296121	-0.325110	0.076692	-0.243864	-0.264150	0.064321	-0.226445	-0.162541	0.048859	-0.209026	-2.031875	0.356814	-1.550055	0.000000	0.000000	13.105041	3.554627	3.426863	18.250660	0.807056	149.135927	1.357932	1.396712	7.268212	-20.344854	13.536553	-13.272900	77.466613	24.160599	53.156890	-3.782205	-5.776924
2.593220	0.951708	-1.547695	96.770393	0.274550	0.721193	0.830758	-5.245871	4.581143	7.281758	2.430203	0.042415	26.618362	-11.736807	0.000000	-1.165255	-1.982200	-4.315978	9.777861	0.170656	36.436564	3.541062	0.000000	-0.267856	0.069026	-0.288842	-0.497435	0.091805	-0.306895	-0.440060	0.167831	-0.306895	-0.306132	0.167831	-0.252737	-0.248731	0.140759	-0.234684	-0.153053	0.106922	-0.216632	-1.913268	0.780841	-1.606454	0.000000	0.000000	12.631746	3.757803	3.670313	18.301431	0.505314	141.354577	3.836708	4.837264	7.691151	-19.226936	13.645033	-12.734115	74.774241	25.443387	55.018946	-2.943876	-4.743360
2.610169	1.234356	-1.823478	97.047947	0.273621	0.721118	0.832412	-4.644311	4.778260	5.770143	2.914370	0.050865	27.066421	-9.949555	0.000000	-0.662394	-2.229954	-4.262675	9.961573	0.173862	36.510029	3.814809	0.000000	-0.248568	0.119056	-0.279482	-0.461616	0.158344	-0.296950	-0.408373	0.289472	-0.296950	-0.284089	0.289472	-0.244547	-0.230821	0.242779	-0.227079	-0.142032	0.184418	-0.209612	-1.775499	1.346784	-1.554396	0.000000	0.000000	12.160051	3.777753	3.850255	18.222060	-0.133337	132.555536	6.915060	8.741765	8.024656	-17.813888	13.743728	-12.215861	72.278765	26.913204	55.973598	-2.074027	-3.915446
2.627119	1.554254	-2.106365	97.288804	0.272488	0.721100	0.834133	-4.014154	4.984028	4.136881	3.420906	0.059706	27.551623	-7.962234	0.000000	-0.139345	-2.485954	-4.092885	10.170545	0.177509	36.528207	3.872837	0.000000	-0.229118	0.178471	-0.245947	-0.425495	0.237366	-0.261319	-0.376418	0.433934	-0.261319	-0.261859	0.433934	-0.215203	-0.212759	0.363938	-0.199832	-0.130918	0.276451	-0.184460	-1.636567	2.018898	-1.367883	0.000000	0.000000	11.703573	3.633907	3.915811	17.963149	-1.066874	122.964601	10.504167	13.356241	8.285397	-16.176125	13.857251	-11.721826	70.110456	28.522049	56.300067	-1.313146	-3.417724
2.644068	1.908349	-2.400297	97.494728	0.271208	0.721117	0.835887	-3.367029	5.200673	2.449682	3.918633	0.068393	28.033476	-5.871357	0.000000	0.403539	-2.748486	-3.786246	10.394575	0.181420	36.495522	3.692246	0.000000	-0.208016	0.245524	-0.194034	-0.386307	0.326547	-0.206162	-0.341750	0.596968	-0.206162	-0.237742	0.596968	-0.169780	-0.193164	0.500673	-0.157653	-0.118860	0.380317	-0.145526	-1.485838	2.777420	-1.079161	0.000000	0.000000	11.299445	3.346480	3.873925	17.541571	-2.249733	113.272763	14.489699	18.536470	8.207836	-14.452483	13.993148	-11.287422	68.328300	30.263007	56.034994	-0.725646	-3.355093
2.661017	2.279052	-2.696434	97.695664	0.269787	0.721149	0.837705	-2.715093	5.413516	0.679959	4.400203	0.076798	28.511215	-3.682610	0.000000	0.968848	-3.001370	-3.323282	10.644210	0.185777	36.427453	3.290040	0.000000	-0.187172	0.316987	-0.131691	-0.347597	0.421593	-0.139921	-0.307504	0.770723	-0.139921	-0.213919	0.770723	-0.115229	-0.173808	0.646400	-0.106999	-0.106950	0.491013	-0.098768	-1.336949	3.585822	-0.732423	0.000000	0.000000	10.997392	2.973492	3.727353	16.998948	-3.648800	103.715471	18.772458	24.118386	7.785732	-12.772671	14.218250	-10.947026	67.107554	32.129658	55.156473	-0.342073	-3.735278
2.677966	2.666681	-2.992749	97.885454	0.268263	0.721189	0.839586	-2.064143	5.628005	-1.026458	4.851814	0.084680	28.947872	-1.590723	0.000000	1.563282	-3.242178	-2.707677	10.935999	0.190869	36.334369	2.651211	0.000000	-0.165946	0.392482	-0.058849	-0.308179	0.522001	-0.062527	-0.272633	0.954280	-0.062527	-0.189660	0.954280	-0.051493	-0.154098	0.800349	-0.047815	-0.094822	0.607954	-0.044137	-1.185338	4.439831	-0.327302	0.000000	0.000000	10.799281	2.480438	3.461987	16.317718	-5.205017	94.379380	23.224292	30.324126	7.119470	-11.060680	14.567267	-10.650213	66.611100	33.992696	53.684182	-0.154733	-4.493451
2.694915	3.038420	-3.290006	98.041144	0.266739	0.721217	0.841470	-1.420805	5.812623	-2.740473	5.272898	0.092029	29.378542	0.526393	0.000000	2.150089	-3.447137	-1.962792	11.203230	0.195533	36.179914	1.782460	0.000000	-0.144664	0.465791	0.018611	-0.268655	0.619502	0.019775	-0.237668	1.132524	0.019775	-0.165336	1.132524	0.016285	-0.134335	0.949841	0.015122	-0.082661	0.721510	0.013959	-1.033319	5.269119	0.103512	0.000000	0.000000	10.726727	1.980977	3.105177	15.562444	-6.862846	85.729024	27.708883	36.671183	6.141745	-9.536984	15.047592	-10.451038	66.943282	35.843023	51.482295	-0.140248	-5.655683
2.711864	3.384629	-3.577802	98.229464	0.265216	0.721219	0.843372	-0.806623	5.975642	-4.321283	5.629975	0.098262	29.754017	2.391294	0.000000	2.755228	-3.619535	-1.151783	11.509231	0.200874	36.030750	0.868912	0.000000	-0.124369	0.534387	0.083297	-0.230965	0.710735	0.088503	-0.204326	1.299309	0.088503	-0.142141	1.299309	0.072885	-0.115489	1.089722	0.067679	-0.071064	0.827766	0.062473	-0.888354	6.045095	0.463272	0.000000	0.000000	10.781748	1.488099	2.697797	14.764155	-8.536301	77.702750	32.086535	43.263209	5.054827	-8.087025	15.583059	-10.371835	67.548414	37.663770	49.221056	-0.243179	-6.894754
2.728814	3.705580	-3.851727	98.474774	0.263689	0.721194	0.845290	-0.231740	6.122660	-5.665889	5.903231	0.103031	30.031380	3.827460	0.000000	3.376554	-3.754390	-0.227763	11.848122	0.206789	35.876293	-0.121948	0.000000	-0.105032	0.597531	0.126314	-0.195054	0.794716	0.134209	-0.172556	1.452836	0.134209	-0.120041	1.452836	0.110525	-0.097532	1.218484	0.102630	-0.060015	0.925575	0.094736	-0.750230	6.759385	0.702521	0.000000	0.000000	10.969437	1.008037	2.261839	13.970578	-10.170256	70.368948	36.235088	49.895883	4.020828	-6.618012	16.191293	-10.386164	68.787031	39.385404	46.520106	-0.413842	-8.055620
2.745763	3.989420	-4.094067	98.754697	0.262256	0.721157	0.847161	0.282752	6.247636	-6.834577	6.100446	0.106473	30.253895	4.954377	0.000000	3.982681	-3.871087	0.541835	12.214469	0.213183	35.782729	-0.862980	0.000000	-0.087758	0.652269	0.152700	-0.162975	0.867518	0.162244	-0.144177	1.585927	0.162244	-0.100298	1.585927	0.133613	-0.081492	1.330107	0.124069	-0.050145	1.010365	0.114525	-0.626845	7.378596	0.849273	0.000000	0.000000	11.248818	0.584645	1.774349	13.216735	-11.714271	63.865456	40.022418	56.227794	3.075002	-5.257091	16.896712	-10.508566	70.413247	40.962373	44.278674	-0.671847	-9.297416
2.762712	4.231231	-4.303867	99.098923	0.260888	0.721117	0.848991	0.733771	6.354434	-7.686220	6.215543	0.108482	30.357900	5.528617	0.000000	4.576606	-3.953094	1.306584	12.606755	0.220029	35.724423	-1.518379	0.000000	-0.072653	0.698320	0.145222	-0.134925	0.928766	0.154299	-0.119362	1.697896	0.154299	-0.083036	1.697896	0.127069	-0.067466	1.424014	0.117993	-0.041514	1.081698	0.108917	-0.518956	7.899537	0.807683	0.000000	0.000000	11.603688	0.206817	1.314863	12.569344	-13.093466	58.376574	43.345049	62.137657	2.351736	-3.878973	17.627323	-10.737183	72.506290	42.412787	42.127339	-0.973484	-10.306592
